<?xml version="1.0" encoding="utf-8"?>
<!-- Generator: Adobe Illustrator 23.1.0, SVG Export Plug-In . SVG Version: 6.00 Build 0)  -->
<svg version="1.1" id="Layer_1" xmlns="http://www.w3.org/2000/svg" xmlns:xlink="http://www.w3.org/1999/xlink" x="0px" y="0px"
	 viewBox="0 0 300 300" style="enable-background:new 0 0 300 300;" xml:space="preserve">
<style type="text/css">
	.st0{fill:#FFFFFF;}
</style>
<path class="st0" d="M187.5,15c-4.2,0-7.5,3.3-7.5,7.5s3.3,7.5,7.5,7.5c45.6,0,82.5,36.9,82.5,82.5c0,4.2,3.3,7.5,7.5,7.5
	s7.5-3.3,7.5-7.5C285,58.8,241.2,15,187.5,15z"/>
<path class="st0" d="M187.5,45c-4.2,0-7.5,3.3-7.5,7.5s3.3,7.5,7.5,7.5c28.8,0,52.5,23.7,52.5,52.5c0,4.2,3.3,7.5,7.5,7.5
	s7.5-3.3,7.5-7.5C255,75.3,224.7,45,187.5,45z"/>
<path class="st0" d="M210,112.5c0,4.2,3.3,7.5,7.5,7.5s7.5-3.3,7.5-7.5c0-20.7-16.8-37.5-37.5-37.5c-4.2,0-7.5,3.3-7.5,7.5
	s3.3,7.5,7.5,7.5C199.8,90,210,100.2,210,112.5z"/>
<path class="st0" d="M190.5,120l2.1-2.1c3-3,3-7.8,0-10.5c-3-3-7.8-3-10.5,0l-2.1,2.1l-53.1-53.1c-3-3-7.8-3-10.5,0
	C99.3,73.5,90,96,90,120c0,21.9,7.8,42.9,22.2,59.1L77.4,270H60c-4.2,0-7.5,3.3-7.5,7.5s3.3,7.5,7.5,7.5h97.5l0,0l0,0H180
	c4.2,0,7.5-3.3,7.5-7.5s-3.3-7.5-7.5-7.5h-17.4L135,198c13.5,7.8,29.1,12,45,12c24,0,46.5-9.3,63.6-26.4c3-3,3-7.8,0-10.5L190.5,120
	z M93.3,270l26.7-69l26.7,69H93.3z M180,195c-20.1,0-39-7.8-53.1-21.9S105,140.1,105,120c0-17.4,6-34.2,16.8-47.4l105.6,105.6
	C214.2,189,197.4,195,180,195z"/>
</svg>
