<svg height='300px' width='300px'  fill="#000000" xmlns="http://www.w3.org/2000/svg" xmlns:xlink="http://www.w3.org/1999/xlink" version="1.1" x="0px" y="0px" viewBox="0 0 100 100" enable-background="new 0 0 100 100" xml:space="preserve"><path d="M62.5,5C61.1,5,60,6.1,60,7.5s1.1,2.5,2.5,2.5C77.7,10,90,22.3,90,37.5c0,1.4,1.1,2.5,2.5,2.5s2.5-1.1,2.5-2.5  C95,19.6,80.4,5,62.5,5z"></path><path d="M62.5,15c-1.4,0-2.5,1.1-2.5,2.5s1.1,2.5,2.5,2.5C72.1,20,80,27.9,80,37.5c0,1.4,1.1,2.5,2.5,2.5s2.5-1.1,2.5-2.5  C85,25.1,74.9,15,62.5,15z"></path><path d="M70,37.5c0,1.4,1.1,2.5,2.5,2.5s2.5-1.1,2.5-2.5C75,30.6,69.4,25,62.5,25c-1.4,0-2.5,1.1-2.5,2.5s1.1,2.5,2.5,2.5  C66.6,30,70,33.4,70,37.5z"></path><path d="M63.5,40l0.7-0.7c1-1,1-2.6,0-3.5c-1-1-2.6-1-3.5,0L60,36.5L42.3,18.8c-1-1-2.6-1-3.5,0C33.1,24.5,30,32,30,40  c0,7.3,2.6,14.3,7.4,19.7L25.8,90H20c-1.4,0-2.5,1.1-2.5,2.5S18.6,95,20,95h32.5c0,0,0,0,0,0c0,0,0,0,0,0H60c1.4,0,2.5-1.1,2.5-2.5  S61.4,90,60,90h-5.8L45,66c4.5,2.6,9.7,4,15,4c8,0,15.5-3.1,21.2-8.8c1-1,1-2.6,0-3.5L63.5,40z M31.1,90L40,67l8.9,23H31.1z M60,65  c-6.7,0-13-2.6-17.7-7.3C37.6,53,35,46.7,35,40c0-5.8,2-11.4,5.6-15.8l35.2,35.2C71.4,63,65.8,65,60,65z"></path></svg>