<svg xmlns="http://www.w3.org/2000/svg" viewBox="0 0 140.43 139.33"><defs><style>.cls-1{fill:#fff;}.cls-2{fill:none;stroke:#000;stroke-miterlimit:10;stroke-width:4px;}</style></defs><title>satellite-1</title><g id="Layer_2" data-name="Layer 2"><g id="Layer_1-2" data-name="Layer 1"><path class="cls-1" d="M31.73,80.5,3.81,53.28a6,6,0,0,1-.11-8.49l39.94-41a6,6,0,0,1,8.48-.11L80.05,30.92"/><path class="cls-2" d="M31.73,80.5,3.81,53.28a6,6,0,0,1-.11-8.49l39.94-41a6,6,0,0,1,8.48-.11L80.05,30.92"/><path class="cls-1" d="M108.7,58.83l27.93,27.22a6,6,0,0,1,.11,8.49l-39.95,41a6,6,0,0,1-8.48.11L60.38,108.41"/><path class="cls-2" d="M108.7,58.83l27.93,27.22a6,6,0,0,1,.11,8.49l-39.95,41a6,6,0,0,1-8.48.11L60.38,108.41"/><line class="cls-2" x1="19.92" y1="96.91" x2="44.27" y2="120.64"/><path class="cls-1" d="M118.32,49.68,56.2,113.42a6,6,0,0,1-8.48.11L27,93.29a6,6,0,0,1-.11-8.49L89,21.06"/><path class="cls-2" d="M118.32,49.68,56.2,113.42a6,6,0,0,1-8.48.11L27,93.29a6,6,0,0,1-.11-8.49L89,21.06"/><path class="cls-1" d="M89,21.06a20.5,20.5,0,1,1,29.36,28.62"/><path class="cls-2" d="M89,21.06a20.5,20.5,0,1,1,29.36,28.62"/></g></g></svg>